# xmcd CD database file
#
# Track frame offsets:
#	150
#	18265
#	34265
#	50575
#	65202
#	81352
#	96440
#	110122
#	124822
#	145950
#	163522
#	177310
#	191602
#
# Disc length: 3101 seconds
#
# Revision: 1
# Processed by: cddbd v1.5.2PL0 Copyright (c) Steve Scherf et al.
# Submitted via: CDex 1.50
#
DISCID=c10c1b0d,c90c1b0d
DTITLE=Kind of Blue - In Sight
DYEAR=2000
DGENRE=Rock
TTITLE0=Bitter Blue
TTITLE1=The Inside around me
TTITLE2=Easier
TTITLE3=End of The Century
TTITLE4=Confused
TTITLE5=Down But Where
TTITLE6=The Same
TTITLE7=The Great Big Feeling
TTITLE8=Places
TTITLE9=Angels Falling
TTITLE10=Ready
TTITLE11=Paradise
TTITLE12=Turn Out The Light
EXTD=YEAR: 2000
EXTT0=
EXTT1=
EXTT2=
EXTT3=
EXTT4=
EXTT5=
EXTT6=
EXTT7=
EXTT8=
EXTT9=
EXTT10=
EXTT11=
EXTT12=
PLAYORDER=
